<svg width="1024" height="1024" viewBox="0 0 1024 1024" fill="none" xmlns="http://www.w3.org/2000/svg">
<path d="M332.85 528.68C332.986 594.172 334.607 628.827 354.285 652.805C358.213 657.592 362.604 661.982 367.391 665.911C391.829 685.966 427.357 687.265 495.32 687.351V937H420.588C263.333 937 184.705 937 135.852 888.148C86.9996 839.295 87 760.667 87 603.412V528.68H332.85Z" fill="#56AEF6"/>
<path d="M937 603.412C937 760.667 937 839.295 888.148 888.148C839.295 937 760.667 937 603.412 937H528.68V687.341C594.172 687.205 628.827 685.589 652.805 665.911C657.592 661.982 661.982 657.592 665.911 652.805C685.589 628.827 687.21 594.172 687.346 528.68H937V603.412Z" fill="#56AEF6"/>
<path d="M495.32 332.841C427.357 332.927 391.829 334.23 367.391 354.285C362.604 358.213 358.213 362.604 354.285 367.391C334.23 391.829 332.931 427.357 332.845 495.32H87V420.588C87 263.333 86.9996 184.705 135.852 135.852C184.705 86.9996 263.333 87 420.588 87H495.32V332.841Z" fill="#56AEF6"/>
<path d="M603.412 87C760.667 87 839.295 86.9996 888.148 135.852C937 184.705 937 263.333 937 420.588V495.32H687.351C687.265 427.357 685.966 391.829 665.911 367.391C661.982 362.604 657.592 358.213 652.805 354.285C628.827 334.607 594.172 332.986 528.68 332.85V87H603.412Z" fill="#56AEF6"/>
</svg>
